<?xml version="1.0" encoding="utf-8"?>
<!-- Generator: Adobe Illustrator 22.1.0, SVG Export Plug-In . SVG Version: 6.00 Build 0)  -->
<svg version="1.1" id="Logo" xmlns="http://www.w3.org/2000/svg" xmlns:xlink="http://www.w3.org/1999/xlink" x="0px" y="0px"
	 viewBox="0 0 512 512" style="enable-background:new 0 0 512 512;" xml:space="preserve">
<g>
	<path d="M258.3,97.4c50.9,0,56.9,0.2,77,1.1c18.6,0.8,28.7,4,35.4,6.6c8.9,3.5,15.2,7.6,21.9,14.3c6.7,6.7,10.8,13,14.3,21.9
		c2.6,6.7,5.7,16.8,6.6,35.4c0.9,20.1,1.1,26.1,1.1,77s-0.2,56.9-1.1,77c-0.8,18.6-4,28.7-6.6,35.4c-3.5,8.9-7.6,15.2-14.3,21.9
		c-6.7,6.7-13,10.8-21.9,14.3c-6.7,2.6-16.8,5.7-35.4,6.6c-20.1,0.9-26.1,1.1-77,1.1s-56.9-0.2-77-1.1c-18.6-0.8-28.7-4-35.4-6.6
		c-8.9-3.5-15.2-7.6-21.9-14.3c-6.7-6.7-10.8-13-14.3-21.9c-2.6-6.7-5.7-16.8-6.6-35.4c-0.9-20.1-1.1-26.1-1.1-77s0.2-56.9,1.1-77
		c0.8-18.6,4-28.7,6.6-35.4c3.5-8.9,7.6-15.2,14.3-21.9c6.7-6.7,13-10.8,21.9-14.3c6.7-2.6,16.8-5.7,35.4-6.6
		C201.3,97.6,207.4,97.4,258.3,97.4 M258.3,63.1c-51.8,0-58.3,0.2-78.6,1.1c-20.3,0.9-34.1,4.1-46.3,8.9
		c-12.5,4.9-23.2,11.4-33.8,22c-10.6,10.6-17.1,21.2-22,33.8c-4.7,12.1-7.9,26-8.9,46.3c-0.9,20.3-1.1,26.8-1.1,78.6
		c0,51.8,0.2,58.3,1.1,78.6c0.9,20.3,4.1,34.1,8.9,46.3c4.9,12.5,11.4,23.2,22,33.8c10.6,10.6,21.2,17.1,33.8,22
		c12.1,4.7,26,7.9,46.3,8.9c20.3,0.9,26.8,1.1,78.6,1.1s58.3-0.2,78.6-1.1c20.3-0.9,34.1-4.1,46.3-8.9c12.5-4.9,23.2-11.4,33.8-22
		c10.6-10.6,17.1-21.2,22-33.8c4.7-12.1,7.9-26,8.9-46.3c0.9-20.3,1.1-26.8,1.1-78.6s-0.2-58.3-1.1-78.6
		c-0.9-20.3-4.1-34.1-8.9-46.3c-4.9-12.5-11.4-23.2-22-33.8c-10.6-10.6-21.2-17.1-33.8-22c-12.1-4.7-26-7.9-46.3-8.9
		C316.5,63.3,310,63.1,258.3,63.1L258.3,63.1z"/>
	<path d="M258.3,155.8c-54.1,0-97.9,43.8-97.9,97.9s43.8,97.9,97.9,97.9s97.9-43.8,97.9-97.9S312.3,155.8,258.3,155.8z M258.3,317.3
		c-35.1,0-63.5-28.5-63.5-63.5s28.5-63.5,63.5-63.5s63.5,28.5,63.5,63.5S293.4,317.3,258.3,317.3z"/>
	<circle cx="360" cy="152" r="22.9"/>
</g>
</svg>
