<?xml version="1.0" encoding="utf-8"?>
<!-- Generator: Adobe Illustrator 22.1.0, SVG Export Plug-In . SVG Version: 6.00 Build 0)  -->
<svg version="1.1" id="Logo_FIXED" xmlns="http://www.w3.org/2000/svg" xmlns:xlink="http://www.w3.org/1999/xlink" x="0px" y="0px"
	 viewBox="0 0 400 400" style="enable-background:new 0 0 400 400;" xml:space="preserve">
<style type="text/css">
	.st0{fill:none;}
</style>
<title>Twitter_Logo_Blue</title>
<rect class="st0" width="400" height="400"/>
<path d="M144.5,321.5c112.8,0,174.5-93.5,174.5-174.5c0-2.7,0-5.3-0.2-7.9c12-8.7,22.4-19.4,30.6-31.8c-11.2,5-23.1,8.2-35.2,9.7
	c12.8-7.7,22.4-19.7,27-33.9c-12,7.1-25.2,12.2-39,14.9C279,73.2,240.2,72,215.5,95.2c-15.9,15-22.7,37.3-17.7,58.6
	c-49.3-2.5-95.3-25.8-126.4-64.1c-16.3,28-8,63.9,19,81.9c-9.8-0.3-19.3-2.9-27.8-7.7c0,0.3,0,0.5,0,0.8c0,29.2,20.6,54.4,49.2,60.1
	c-9,2.5-18.5,2.8-27.7,1.1c8,25,31.1,42.1,57.3,42.6c-21.7,17.1-48.6,26.3-76.2,26.3c-4.9,0-9.8-0.3-14.6-0.9
	C78.6,311.9,111.2,321.5,144.5,321.5"/>
</svg>
